<?xml version="1.0" encoding="UTF-8" standalone="no"?>
<svg
   width="1200"
   height="180"
   viewBox="0 0 1200 180"
   version="1.1"
   id="svg1"
   xmlns="http://www.w3.org/2000/svg"
   xmlns:svg="http://www.w3.org/2000/svg">
  <defs
     id="defs1" />
  <path
     d="m 427.17594,120.912 q -6.84,0 -10.412,-3.344 -3.572,-3.344 -3.572,-9.12 0,-3.572 1.596,-6.156 1.596,-2.66 4.256,-4.18 2.356,-1.368 5.472,-2.052 3.192,-0.76 8.284,-0.912 0.912,-8.512 5.548,-13.3 4.636,-4.864 12.16,-4.864 5.472,0 9.196,2.356 3.724,2.28 5.776,6.384 2.052,4.104 2.584,9.348 5.168,0.152 8.512,0.988 3.344,0.76 5.776,2.508 2.204,1.52 3.496,3.952 1.368,2.356 1.368,5.928 0,5.776 -3.42,9.12 -3.42,3.344 -9.804,3.344 -1.9,0 -3.952,-0.228 -1.976,-0.152 -3.724,-0.684 l 1.444,-5.092 q 1.064,0.304 2.508,0.532 1.52,0.152 2.736,0.152 7.676,0 7.676,-7.068 0,-2.204 -0.836,-3.572 -0.836,-1.444 -2.204,-2.356 -1.672,-1.064 -3.952,-1.52 -2.28,-0.532 -5.472,-0.608 -0.38,9.956 -5.092,15.2 -4.712,5.244 -12.54,5.244 -6.688,0 -11.096,-3.648 -2.888,1.824 -5.852,2.736 -2.888,0.912 -6.46,0.912 z m 23.332,-38.608 q -9.956,0 -11.172,12.768 h 22.192 q -0.608,-6.536 -3.42,-9.652 -2.812,-3.116 -7.6,-3.116 z m -0.152,33.288 q 5.244,0 8.132,-3.648 2.888,-3.724 3.192,-11.552 h -22.496 q 0.532,15.2 11.172,15.2 z m -30.628,-7.296 q 0,3.724 2.052,5.548 2.128,1.748 5.624,1.748 2.052,0 4.104,-0.532 2.128,-0.608 4.408,-2.052 -2.964,-4.94 -3.268,-12.616 -3.724,0.152 -6.004,0.608 -2.204,0.456 -3.952,1.596 -1.368,0.836 -2.204,2.28 -0.76,1.444 -0.76,3.42 z m 81.70001,28.956 q -6.384,0 -10.108,-3.724 -3.648,-3.648 -3.648,-9.5 0,-5.32 3.192,-8.816 3.192,-3.496 8.208,-4.18 1.748,-6.08 2.736,-11.172 1.064,-5.168 1.064,-9.88 0,-3.192 -1.292,-5.32 -1.216,-2.204 -4.788,-2.204 -1.216,0 -2.508,0.228 -1.216,0.152 -2.052,0.38 l -1.292,-5.244 q 1.216,-0.38 2.964,-0.608 1.748,-0.228 3.648,-0.228 4.56,0 7.144,1.748 2.66,1.672 3.724,4.56 1.14,2.888 1.14,6.308 0,4.256 -1.14,9.956 -1.14,5.7 -2.964,11.78 4.408,1.064 6.992,4.408 2.66,3.268 2.66,8.284 0,6.004 -3.8,9.576 -3.8,3.648 -9.88,3.648 z m 0,-5.016 q 3.116,0 5.244,-2.052 2.204,-2.052 2.204,-6.156 0,-4.028 -2.128,-6.08 -2.128,-2.052 -5.396,-2.052 -3.192,0 -5.32,2.052 -2.128,2.052 -2.128,6.156 0,3.952 2.128,6.004 2.204,2.128 5.396,2.128 z m 33.44006,-42.94 q 0,-5.168 3.42,-8.74 3.42,-3.572 10.108,-3.572 4.864,0 7.752,1.976 2.964,1.976 4.256,5.016 1.368,3.04 1.368,6.232 0,6.308 -3.8,11.172 -3.724,4.788 -10.336,6.46 0.304,1.444 0.304,2.812 0,2.204 -0.988,4.636 -0.912,2.356 -3.572,4.028 -2.66,1.596 -7.828,1.596 -2.812,0 -5.928,-0.684 -3.116,-0.608 -6.232,-2.28 l 2.356,-5.092 q 2.052,1.216 4.484,1.976 2.508,0.684 5.244,0.684 3.8,0 4.94,-1.444 1.216,-1.52 1.216,-3.648 0,-0.912 -0.152,-1.824 h -1.52 q -7.6,0 -12.54,-2.508 -4.94,-2.508 -7.372,-6.84 -2.356,-4.332 -2.356,-9.728 0,-2.888 0.912,-6.004 0.912,-3.192 3.192,-6.536 l 5.092,2.812 q -1.672,2.888 -2.204,5.092 -0.456,2.204 -0.456,4.408 0,7.296 4.332,10.716 4.408,3.344 11.248,3.344 -1.064,-2.052 -2.204,-4.104 -1.14,-2.128 -1.976,-4.484 -0.76,-2.432 -0.76,-5.472 z m 6.384,0.076 q 0,4.028 1.596,7.144 1.596,3.116 3.04,6.308 4.56,-1.292 6.916,-4.864 2.432,-3.572 2.432,-8.132 0,-2.964 -1.52,-5.244 -1.444,-2.356 -5.472,-2.356 -3.648,0 -5.32,2.052 -1.672,2.052 -1.672,5.092 z m 20.74794,-33.44 q 5.624,0 8.892,2.508 2.128,1.596 3.344,3.8 1.216,2.128 1.748,5.624 0.532,3.42 0.532,9.044 V 120 h -6.536 V 78.808 q 0,-5.852 -0.532,-9.424 -0.456,-3.648 -1.748,-5.548 -0.912,-1.216 -2.28,-1.9 -1.292,-0.684 -3.268,-0.684 -1.672,0 -3.268,0.76 -1.672,0.684 -2.736,2.28 -1.064,1.52 -1.064,4.18 0,0.684 0.152,1.444 0.076,0.684 0.152,1.368 l -6.384,1.14 q -0.152,-0.912 -0.304,-1.824 -0.152,-0.988 -0.152,-1.824 0,-4.332 1.9,-7.144 1.824,-2.888 4.94,-4.256 3.04,-1.444 6.612,-1.444 z m 46.58806,21.052 q 6.308,0 11.932,2.66 2.964,-1.444 5.928,-2.052 3.04,-0.608 5.7,-0.608 5.852,0 9.88,2.052 4.104,2.052 6.536,5.7 2.812,-3.344 6.764,-5.548 4.028,-2.204 10.488,-2.204 3.496,0 6.308,0.608 2.812,0.532 5.396,1.824 2.888,-1.292 5.928,-1.824 3.116,-0.608 6.612,-0.608 7.6,0 12.54,2.964 5.016,2.888 7.524,7.828 2.508,4.864 2.508,10.868 0,7.98 -3.496,13.376 -3.42,5.32 -8.74,8.664 l -3.8,-4.788 q 3.724,-2.204 6.46,-6.232 2.812,-4.028 2.812,-10.26 0,-4.788 -1.9,-8.664 -1.824,-3.952 -5.548,-6.232 -3.648,-2.28 -9.12,-2.28 -1.9,0 -3.572,0.152 -1.596,0.152 -3.116,0.532 4.332,3.268 7.144,8.512 2.812,5.168 2.812,11.932 0,8.132 -4.028,12.844 -4.028,4.712 -11.476,4.712 -7.448,0 -11.476,-4.712 -4.028,-4.788 -4.028,-12.844 0,-6.764 3.04,-11.856 3.04,-5.168 7.752,-8.512 -1.14,-0.38 -2.584,-0.532 -1.368,-0.228 -3.344,-0.228 -4.028,0 -6.612,0.988 -2.508,0.988 -4.028,2.584 -1.9,1.9 -2.888,4.712 -0.912,2.736 -0.912,7.524 V 120 h -6.536 V 99.48 q 0,-6.004 -1.064,-9.196 -0.988,-3.268 -3.572,-5.32 -1.824,-1.52 -3.952,-2.128 -2.128,-0.608 -5.168,-0.608 -1.368,0 -2.964,0.152 -1.52,0.152 -3.116,0.684 4.56,3.192 7.448,8.436 2.888,5.244 2.888,11.856 0,8.132 -4.028,12.844 -3.952,4.712 -11.324,4.712 -7.6,0 -11.628,-4.712 -4.028,-4.712 -4.028,-12.844 0,-6.764 2.964,-11.856 3.04,-5.168 7.752,-8.436 -1.52,-0.532 -3.04,-0.684 -1.52,-0.152 -3.344,-0.152 -5.776,0 -9.728,2.28 -3.952,2.204 -5.928,6.08 -1.976,3.8 -1.976,8.664 0,5.928 2.508,9.956 2.508,4.028 6.764,6.688 l -3.8,4.788 q -3.268,-1.9 -6.08,-4.864 -2.736,-3.04 -4.484,-7.22 -1.672,-4.256 -1.672,-9.652 0,-6.232 2.736,-11.172 2.736,-5.016 8.056,-7.904 5.32,-2.888 12.92,-2.888 z m 59.66,26.22 q 0,4.864 1.216,7.6 1.292,2.66 3.268,3.724 2.052,1.064 4.332,1.064 2.356,0 4.332,-1.064 1.976,-1.064 3.192,-3.724 1.292,-2.736 1.292,-7.6 0,-5.776 -2.356,-10.412 -2.28,-4.712 -6.156,-7.448 -3.8,2.356 -6.46,6.992 -2.66,4.56 -2.66,10.868 z m -56.62,0 q 0,4.864 1.216,7.6 1.292,2.66 3.268,3.724 2.052,1.064 4.332,1.064 2.432,0 4.408,-0.988 1.976,-1.064 3.192,-3.724 1.216,-2.736 1.216,-7.676 0,-5.548 -2.432,-10.26 -2.356,-4.712 -6.308,-7.448 -3.724,2.432 -6.308,6.992 -2.584,4.484 -2.584,10.716 z m 112.93601,34.048 q -6.384,0 -10.108,-3.724 -3.648,-3.648 -3.648,-9.5 0,-5.32 3.192,-8.816 3.192,-3.496 8.208,-4.18 1.748,-6.08 2.736,-11.172 1.064,-5.168 1.064,-9.88 0,-3.192 -1.292,-5.32 -1.216,-2.204 -4.788,-2.204 -1.216,0 -2.508,0.228 -1.216,0.152 -2.052,0.38 l -1.292,-5.244 q 1.216,-0.38 2.964,-0.608 1.748,-0.228 3.648,-0.228 4.56,0 7.144,1.748 2.66,1.672 3.724,4.56 1.14,2.888 1.14,6.308 0,4.256 -1.14,9.956 -1.14,5.7 -2.964,11.78 4.408,1.064 6.992,4.408 2.66,3.268 2.66,8.284 0,6.004 -3.8,9.576 -3.8,3.648 -9.88,3.648 z m 0,-5.016 q 3.116,0 5.244,-2.052 2.204,-2.052 2.204,-6.156 0,-4.028 -2.128,-6.08 -2.128,-2.052 -5.396,-2.052 -3.192,0 -5.32,2.052 -2.128,2.052 -2.128,6.156 0,3.952 2.128,6.004 2.204,2.128 5.396,2.128 z m 39.36806,-55.252 q 7.524,0 12.464,2.964 4.94,2.888 7.372,7.828 2.508,4.864 2.508,10.868 0,7.98 -3.496,13.376 -3.42,5.32 -8.74,8.664 l -3.724,-4.788 q 3.724,-2.204 6.46,-6.308 2.736,-4.104 2.736,-10.184 0,-5.016 -1.824,-8.816 -1.824,-3.8 -5.396,-5.928 -3.496,-2.204 -8.588,-2.204 -5.016,0 -8.588,2.28 -3.572,2.204 -5.472,6.004 -1.9,3.8 -1.9,8.512 0,5.928 2.508,9.956 2.508,4.028 6.764,6.688 l -3.8,4.712 q -3.268,-1.824 -6.08,-4.788 -2.736,-3.04 -4.484,-7.22 -1.672,-4.256 -1.672,-9.652 0,-6.232 2.66,-11.172 2.66,-5.016 7.752,-7.904 5.168,-2.888 12.54,-2.888 z"
     id="text1"
     style="font-size:76px;font-family:'Noto Sans Malayalam';text-anchor:middle;fill:#111111"
     aria-label="കുഴിത്തുറ" />
</svg>
