<?xml version="1.0" encoding="UTF-8" standalone="no"?>
<svg
   width="1200"
   height="180"
   viewBox="0 0 1200 180"
   version="1.1"
   id="svg1"
   xmlns="http://www.w3.org/2000/svg"
   xmlns:svg="http://www.w3.org/2000/svg">
  <defs
     id="defs1" />
  <path
     d="m 406.88397,76.984 q 6.004,0 10.26,1.444 4.332,1.368 7.144,4.028 3.116,2.888 4.56,6.992 1.52,4.028 1.52,10.336 V 120 h -45.828 V 99.632 q 0,-5.928 1.444,-10.108 1.444,-4.18 4.484,-6.992 2.812,-2.66 6.764,-4.104 4.028,-1.444 9.652,-1.444 z m -3.572,5.396 q -3.192,0 -5.624,1.596 -2.432,1.596 -3.952,4.256 -1.216,2.128 -1.976,5.244 -0.684,3.04 -0.684,7.6 v 13.756 h 0.38 q 5.168,-3.876 9.196,-8.132 4.028,-4.256 6.308,-8.664 2.356,-4.408 2.356,-8.588 0,-3.116 -1.444,-5.092 -1.444,-1.976 -4.56,-1.976 z m 12.54,7.752 q 0,6.308 -4.028,12.388 -4.028,6.004 -11.02,12.388 1.672,-0.076 3.268,-0.152 1.596,-0.076 3.268,-0.076 h 16.492 v -13.604 q 0,-8.208 -2.432,-12.388 -2.432,-4.256 -8.132,-6.004 1.14,1.52 1.824,3.268 0.76,1.672 0.76,4.18 z m 30.85596,47.12 q -6.384,0 -10.108,-3.724 -3.648,-3.648 -3.648,-9.5 0,-5.32 3.192,-8.816 3.192,-3.496 8.208,-4.18 1.748,-6.08 2.736,-11.172 1.064,-5.168 1.064,-9.88 0,-3.192 -1.292,-5.32 -1.216,-2.204 -4.788,-2.204 -1.216,0 -2.508,0.228 -1.216,0.152 -2.052,0.38 l -1.292,-5.244 q 1.216,-0.38 2.964,-0.608 1.748,-0.228 3.648,-0.228 4.56,0 7.144,1.748 2.66,1.672 3.724,4.56 1.14,2.888 1.14,6.308 0,4.256 -1.14,9.956 -1.14,5.7 -2.964,11.78 4.408,1.064 6.992,4.408 2.66,3.268 2.66,8.284 0,6.004 -3.8,9.576 -3.8,3.648 -9.88,3.648 z m 0,-5.016 q 3.116,0 5.244,-2.052 2.204,-2.052 2.204,-6.156 0,-4.028 -2.128,-6.08 -2.128,-2.052 -5.396,-2.052 -3.192,0 -5.32,2.052 -2.128,2.052 -2.128,6.156 0,3.952 2.128,6.004 2.204,2.128 5.396,2.128 z m 41.11606,-55.252 q 8.436,0 14.06,3.192 5.624,3.192 8.436,8.74 2.812,5.548 2.812,12.692 0,6.764 -2.128,11.096 -2.128,4.256 -5.776,6.232 -3.648,1.976 -8.208,1.976 -4.94,0 -8.208,-2.204 -3.268,-2.204 -4.94,-5.776 -1.596,-3.648 -1.596,-7.828 0,-7.22 3.876,-11.476 3.876,-4.332 10.412,-4.332 2.66,0 4.94,0.988 2.28,0.912 4.028,2.508 -1.596,-4.256 -6.004,-7.296 -4.408,-3.04 -11.704,-3.04 -8.284,0 -13.148,4.408 -4.788,4.332 -4.788,12.388 0,5.928 2.508,9.956 2.508,4.028 6.764,6.688 l -3.8,4.788 q -3.268,-1.9 -6.08,-4.864 -2.736,-3.04 -4.484,-7.22 -1.672,-4.256 -1.672,-9.652 0,-4.256 1.444,-8.208 1.444,-3.952 4.408,-7.068 3.04,-3.116 7.676,-4.864 4.712,-1.824 11.172,-1.824 z m 0.836,27.968 q 0,4.788 1.976,7.752 1.976,2.888 6.384,2.888 4.636,0 7.22,-3.344 2.584,-3.344 2.584,-11.096 0,-0.076 -0.076,-0.608 0,-0.608 -0.076,-1.368 -1.444,-1.976 -3.724,-3.268 -2.204,-1.292 -5.092,-1.292 -4.788,0 -6.992,2.888 -2.204,2.812 -2.204,7.448 z m 37.69597,32.3 q -6.384,0 -10.108,-3.724 -3.648,-3.648 -3.648,-9.5 0,-5.32 3.192,-8.816 3.192,-3.496 8.208,-4.18 1.748,-6.08 2.736,-11.172 1.064,-5.168 1.064,-9.88 0,-3.192 -1.292,-5.32 -1.216,-2.204 -4.788,-2.204 -1.216,0 -2.508,0.228 -1.216,0.152 -2.052,0.38 l -1.292,-5.244 q 1.216,-0.38 2.964,-0.608 1.748,-0.228 3.648,-0.228 4.56,0 7.144,1.748 2.66,1.672 3.724,4.56 1.14,2.888 1.14,6.308 0,4.256 -1.14,9.956 -1.14,5.7 -2.964,11.78 4.408,1.064 6.992,4.408 2.66,3.268 2.66,8.284 0,6.004 -3.8,9.576 -3.8,3.648 -9.88,3.648 z m 0,-5.016 q 3.116,0 5.244,-2.052 2.204,-2.052 2.204,-6.156 0,-4.028 -2.128,-6.08 -2.128,-2.052 -5.396,-2.052 -3.192,0 -5.32,2.052 -2.128,2.052 -2.128,6.156 0,3.952 2.128,6.004 2.204,2.128 5.396,2.128 z m 29.86805,-11.324 q -6.84,0 -10.412,-3.344 -3.572,-3.344 -3.572,-9.12 0,-3.572 1.596,-6.156 1.596,-2.66 4.256,-4.18 2.356,-1.368 5.472,-2.052 3.192,-0.76 8.284,-0.912 0.912,-8.512 5.548,-13.3 4.636,-4.864 12.16,-4.864 5.472,0 9.196,2.356 3.724,2.28 5.776,6.384 2.052,4.028 2.584,9.348 h 6.84 q 2.508,-8.74 9.044,-13.376 6.536,-4.712 15.352,-4.712 7.828,0 12.92,2.964 5.092,2.888 7.524,7.828 2.508,4.864 2.508,10.868 0,7.98 -3.496,13.376 -3.42,5.32 -8.74,8.664 l -3.724,-4.788 q 3.724,-2.204 6.46,-6.308 2.736,-4.104 2.736,-10.184 0,-7.448 -4.18,-12.16 -4.104,-4.788 -12.236,-4.788 -6.156,0 -10.868,3.344 -4.712,3.268 -6.84,9.272 h 2.432 q 6.004,0 9.348,1.064 3.344,1.064 5.472,3.268 3.268,3.42 3.268,9.12 0,5.7 -3.496,9.044 -3.496,3.344 -9.804,3.344 -6.384,0 -10.564,-4.028 -4.18,-4.104 -4.18,-12.388 0,-0.988 0.076,-2.052 0.076,-1.064 0.152,-2.052 h -5.852 q -0.38,10.032 -5.092,15.276 -4.712,5.244 -12.54,5.244 -6.688,0 -11.096,-3.648 -2.888,1.824 -5.852,2.736 -2.888,0.912 -6.46,0.912 z m 23.332,-38.608 q -9.956,0 -11.172,12.768 h 22.192 q -0.608,-6.536 -3.42,-9.652 -2.812,-3.116 -7.6,-3.116 z m -0.152,33.288 q 5.244,0 8.132,-3.648 2.888,-3.724 3.192,-11.552 h -22.496 q 0.532,15.2 11.172,15.2 z m 29.64,-11.248 q 0,6.004 2.28,8.74 2.28,2.66 6.46,2.66 3.116,0 4.94,-1.672 1.9,-1.672 1.9,-5.32 0,-3.876 -2.204,-5.852 -1.444,-1.368 -3.876,-1.9 -2.356,-0.608 -6.84,-0.608 h -2.432 q -0.228,2.204 -0.228,3.952 z m -60.268,3.952 q 0,3.724 2.052,5.548 2.128,1.748 5.624,1.748 2.052,0 4.104,-0.532 2.128,-0.608 4.408,-2.052 -2.964,-4.94 -3.268,-12.616 -3.724,0.152 -6.004,0.608 -2.204,0.456 -3.952,1.596 -1.368,0.836 -2.204,2.28 -0.76,1.444 -0.76,3.42 z M 676.15205,76.984 q 4.864,0 7.828,1.976 3.04,1.9 4.864,4.864 2.28,-3.572 5.472,-5.168 3.192,-1.672 7.828,-1.672 5.852,0 9.956,2.812 4.104,2.736 6.232,7.448 2.204,4.712 2.204,10.564 0,6.08 -1.748,10.032 -1.748,3.876 -4.18,6.84 h 18.544 V 77.896 h 6.536 V 120 h -31.388 l -2.736,-4.104 q 2.128,-2.052 3.952,-4.408 1.9,-2.432 3.116,-5.7 1.216,-3.268 1.216,-7.98 0,-4.408 -1.444,-7.828 -1.444,-3.496 -4.104,-5.472 -2.66,-2.052 -6.232,-2.052 -3.116,0 -5.168,1.14 -1.976,1.064 -3.192,3.268 -0.988,1.672 -1.292,4.104 -0.304,2.432 -0.304,6.916 V 120 h -6.536 V 97.884 q 0,-4.332 -0.304,-6.84 -0.304,-2.508 -1.368,-4.18 -2.584,-4.408 -8.056,-4.408 -3.496,0 -6.232,2.052 -2.66,1.976 -4.18,5.472 -1.52,3.42 -1.52,7.828 0,6.916 2.66,11.172 2.736,4.256 6.46,6.84 l -4.408,4.788 q -3.268,-2.66 -5.852,-5.776 -2.584,-3.192 -4.104,-7.296 -1.444,-4.18 -1.444,-9.728 0,-6.156 2.28,-10.792 2.356,-4.712 6.612,-7.372 4.256,-2.66 10.032,-2.66 z m 80.71198,60.268 q -6.384,0 -10.108,-3.724 -3.648,-3.648 -3.648,-9.5 0,-5.32 3.192,-8.816 3.192,-3.496 8.208,-4.18 1.748,-6.08 2.736,-11.172 1.064,-5.168 1.064,-9.88 0,-3.192 -1.292,-5.32 -1.216,-2.204 -4.788,-2.204 -1.216,0 -2.508,0.228 -1.216,0.152 -2.052,0.38 l -1.292,-5.244 q 1.216,-0.38 2.964,-0.608 1.748,-0.228 3.648,-0.228 4.56,0 7.144,1.748 2.66,1.672 3.724,4.56 1.14,2.888 1.14,6.308 0,4.256 -1.14,9.956 -1.14,5.7 -2.964,11.78 4.408,1.064 6.992,4.408 2.66,3.268 2.66,8.284 0,6.004 -3.8,9.576 -3.8,3.648 -9.88,3.648 z m 0,-5.016 q 3.116,0 5.244,-2.052 2.204,-2.052 2.204,-6.156 0,-4.028 -2.128,-6.08 -2.128,-2.052 -5.396,-2.052 -3.192,0 -5.32,2.052 -2.128,2.052 -2.128,6.156 0,3.952 2.128,6.004 2.204,2.128 5.396,2.128 z m 33.44006,-42.94 q 0,-5.168 3.42,-8.74 3.42,-3.572 10.108,-3.572 4.864,0 7.752,1.976 2.964,1.976 4.256,5.016 1.368,3.04 1.368,6.232 0,6.308 -3.8,11.172 -3.724,4.788 -10.336,6.46 0.304,1.444 0.304,2.812 0,2.204 -0.988,4.636 -0.912,2.356 -3.572,4.028 -2.66,1.596 -7.828,1.596 -2.812,0 -5.928,-0.684 -3.116,-0.608 -6.232,-2.28 l 2.356,-5.092 q 2.052,1.216 4.484,1.976 2.508,0.684 5.244,0.684 3.8,0 4.94,-1.444 1.216,-1.52 1.216,-3.648 0,-0.912 -0.152,-1.824 h -1.52 q -7.6,0 -12.54,-2.508 -4.94,-2.508 -7.372,-6.84 -2.356,-4.332 -2.356,-9.728 0,-2.888 0.912,-6.004 0.912,-3.192 3.192,-6.536 l 5.092,2.812 q -1.672,2.888 -2.204,5.092 -0.456,2.204 -0.456,4.408 0,7.296 4.332,10.716 4.408,3.344 11.248,3.344 -1.064,-2.052 -2.204,-4.104 -1.14,-2.128 -1.976,-4.484 -0.76,-2.432 -0.76,-5.472 z m 6.384,0.076 q 0,4.028 1.596,7.144 1.596,3.116 3.04,6.308 4.56,-1.292 6.916,-4.864 2.432,-3.572 2.432,-8.132 0,-2.964 -1.52,-5.244 -1.444,-2.356 -5.472,-2.356 -3.648,0 -5.32,2.052 -1.672,2.052 -1.672,5.092 z"
     id="text1"
     style="font-size:76px;font-family:'Noto Sans Malayalam';text-anchor:middle;fill:#111111"
     aria-label="മുരുക്കമ്പുഴ" />
</svg>
